	<svg t="1656730997571" class="icon" viewBox="0 0 1024 1024" version="1.1" xmlns="http://www.w3.org/2000/svg" p-id="8237" width="200" height="200"><path d="M232.85 465.6l297.91 425.46c7.92 11.31 5.17 26.9-6.14 34.82-11.31 7.92-26.9 5.17-34.82-6.14L191.9 494.28c-7.92-11.31-5.17-26.9 6.14-34.82 11.3-7.92 26.89-5.17 34.81 6.14z" fill="#1296db" p-id="8238"></path><path d="M824.39 462.53c11.31 7.92 14.06 23.51 6.14 34.82L532.62 922.81c-7.92 11.31-23.51 14.06-34.82 6.14-11.31-7.92-14.06-23.51-6.14-34.82l297.91-425.46c7.92-11.31 23.51-14.06 34.82-6.14zM232.43 108.53l297.91 425.46c7.92 11.31 5.17 26.9-6.14 34.82-11.31 7.92-26.9 5.17-34.82-6.14L191.47 137.21c-7.92-11.31-5.17-26.9 6.14-34.82 11.31-7.92 26.9-5.17 34.82 6.14z" fill="#1296db" p-id="8239"></path><path d="M823.97 105.47c11.31 7.92 14.06 23.51 6.14 34.82L532.2 565.74c-7.92 11.31-23.51 14.06-34.82 6.14-11.31-7.92-14.06-23.51-6.14-34.82L789.15 111.6c7.92-11.3 23.51-14.05 34.82-6.13z" fill="#1296db" p-id="8240"></path></svg>